<svg width="15" height="14" viewBox="0 0 15 14" fill="none" xmlns="http://www.w3.org/2000/svg">
<path d="M7.26245 0C3.39683 0 0.262451 3.13438 0.262451 7C0.262451 10.8656 3.39683 14 7.26245 14C11.1281 14 14.2625 10.8656 14.2625 7C14.2625 3.13438 11.1281 0 7.26245 0ZM7.26245 12.8125C4.05308 12.8125 1.44995 10.2094 1.44995 7C1.44995 3.79063 4.05308 1.1875 7.26245 1.1875C10.4718 1.1875 13.075 3.79063 13.075 7C13.075 10.2094 10.4718 12.8125 7.26245 12.8125ZM8.00776 6.6375L7.61089 6.54531V4.44688C8.20464 4.52813 8.57183 4.9 8.63433 5.35625C8.64214 5.41875 8.69526 5.46406 8.75776 5.46406H9.45933C9.53276 5.46406 9.59058 5.4 9.58433 5.32656C9.48901 4.35313 8.68745 3.72813 7.61714 3.62031V3.10938C7.61714 3.04063 7.56089 2.98438 7.49214 2.98438H7.05308C6.98433 2.98438 6.92808 3.04063 6.92808 3.10938V3.625C5.82183 3.73281 4.9562 4.34375 4.9562 5.48438C4.9562 6.54063 5.73433 7.05 6.55151 7.24531L6.93745 7.34375V9.57344C6.24683 9.48125 5.85933 9.1125 5.77964 8.61563C5.77026 8.55625 5.71714 8.5125 5.6562 8.5125H4.93433C4.86089 8.5125 4.80308 8.575 4.80933 8.64844C4.87964 9.50781 5.5312 10.2984 6.92183 10.4V10.8906C6.92183 10.9594 6.97808 11.0156 7.04683 11.0156H7.49058C7.55933 11.0156 7.61558 10.9594 7.61558 10.8891L7.61245 10.3938C8.83589 10.2859 9.71089 9.63125 9.71089 8.45625C9.70933 7.37188 9.02026 6.8875 8.00776 6.6375ZM6.93589 6.38438C6.84839 6.35938 6.77495 6.33594 6.70151 6.30625C6.17339 6.11562 5.92808 5.80781 5.92808 5.41094C5.92808 4.84375 6.35776 4.52031 6.93589 4.44688V6.38438ZM7.61089 9.57812V7.48906C7.65933 7.50312 7.70308 7.51406 7.74839 7.52344C8.48745 7.74844 8.73589 8.06094 8.73589 8.54062C8.73589 9.15156 8.27651 9.51875 7.61089 9.57812Z" fill="#5F5F5F"/>
</svg>
