<svg width="21" height="20" viewBox="0 0 21 20" fill="none" xmlns="http://www.w3.org/2000/svg">
<g clip-path="url(#clip0_3758_3098)">
<path fill-rule="evenodd" clip-rule="evenodd" d="M7.90888 10.0795V19.7494C7.90888 19.89 8.01889 20 8.15945 20H11.7468C11.8874 20 11.9974 19.89 11.9974 19.7494V9.92054H14.6008C14.7291 9.92054 14.8392 9.82274 14.8514 9.68826L15.1019 6.72983C15.1142 6.58313 14.998 6.45477 14.8514 6.45477H11.9974V4.35208C11.9974 3.85697 12.3946 3.45966 12.8896 3.45966H14.8942C15.0347 3.45966 15.1447 3.34963 15.1447 3.20905V0.250611C15.1447 0.110024 15.0347 0 14.8942 0H11.5024C9.51617 0 7.90277 1.61369 7.90277 3.60024V6.45477H6.10603C5.96547 6.45477 5.85547 6.56479 5.85547 6.70538V9.66381C5.85547 9.8044 5.96547 9.91443 6.10603 9.91443H7.90277V10.0795H7.90888Z" fill="#232323"/>
</g>
<defs>
<clipPath id="clip0_3758_3098">
<rect width="20" height="20" fill="white" transform="translate(0.855469)"/>
</clipPath>
</defs>
</svg>
