<svg width="21" height="20" viewBox="0 0 21 20" fill="none" xmlns="http://www.w3.org/2000/svg">
<g clip-path="url(#clip0_3758_3106)">
<path d="M20.8505 19.9999V19.999H20.8555V12.664C20.8555 9.07569 20.083 6.31152 15.888 6.31152C13.8714 6.31152 12.518 7.41819 11.9655 8.46736H11.9072V6.64652H7.92969V19.999H12.0714V13.3874C12.0714 11.6465 12.4014 9.96319 14.5572 9.96319C16.6814 9.96319 16.713 11.9499 16.713 13.499V19.9999H20.8505Z" fill="#232323"/>
<path d="M1.1853 6.64746H5.33197V20H1.1853V6.64746Z" fill="#232323"/>
<path d="M3.25714 0C1.9313 0 0.855469 1.07583 0.855469 2.40167C0.855469 3.7275 1.9313 4.82583 3.25714 4.82583C4.58297 4.82583 5.6588 3.7275 5.6588 2.40167C5.65797 1.07583 4.58214 0 3.25714 0V0Z" fill="#232323"/>
</g>
<defs>
<clipPath id="clip0_3758_3106">
<rect width="20" height="20" fill="white" transform="translate(0.855469)"/>
</clipPath>
</defs>
</svg>
