<svg width="21" height="20" viewBox="0 0 21 20" fill="none" xmlns="http://www.w3.org/2000/svg">
<g clip-path="url(#clip0_3758_3094)">
<path d="M20.8359 5.88006C20.789 4.81738 20.6172 4.0868 20.371 3.45374C20.1171 2.78176 19.7264 2.18014 19.2145 1.68002C18.7144 1.1721 18.1088 0.777435 17.4446 0.527447C16.8079 0.281274 16.0811 0.109427 15.0184 0.0625732C13.9478 0.0117516 13.6079 0 10.8926 0C8.17719 0 7.83731 0.0117516 6.77067 0.0586052C5.708 0.105459 4.97742 0.277459 4.34451 0.523479C3.67238 0.777435 3.07077 1.16814 2.57064 1.68002C2.06273 2.18014 1.66821 2.78573 1.41807 3.44992C1.1719 4.0868 1.00005 4.81341 0.953198 5.87609C0.902377 6.9467 0.890625 7.28658 0.890625 10.002C0.890625 12.7173 0.902377 13.0572 0.94923 14.1239C0.996084 15.1865 1.16808 15.9171 1.41426 16.5502C1.66821 17.2221 2.06273 17.8238 2.57064 18.3239C3.07077 18.8318 3.67635 19.2265 4.34054 19.4765C4.97742 19.7226 5.70403 19.8945 6.76686 19.9413C7.83335 19.9883 8.17338 19.9999 10.8887 19.9999C13.6041 19.9999 13.944 19.9883 15.0106 19.9413C16.0733 19.8945 16.8039 19.7226 17.4368 19.4765C18.7809 18.9568 19.8436 17.8941 20.3632 16.5502C20.6093 15.9133 20.7813 15.1865 20.8281 14.1239C20.875 13.0572 20.8867 12.7173 20.8867 10.002C20.8867 7.28658 20.8828 6.9467 20.8359 5.88006ZM19.0349 14.0457C18.9918 15.0225 18.8278 15.5499 18.691 15.9015C18.3549 16.7728 17.6634 17.4643 16.7921 17.8004C16.4405 17.9372 15.9093 18.1012 14.9363 18.1441C13.8814 18.1911 13.565 18.2027 10.8965 18.2027C8.22802 18.2027 7.90767 18.1911 6.85659 18.1441C5.87984 18.1012 5.3524 17.9372 5.00077 17.8004C4.56718 17.6402 4.17251 17.3862 3.85217 17.0541C3.52007 16.7298 3.26612 16.3391 3.10587 15.9055C2.96912 15.5539 2.80506 15.0225 2.76217 14.0497C2.71517 12.9948 2.70357 12.6783 2.70357 10.0097C2.70357 7.34122 2.71517 7.02087 2.76217 5.96995C2.80506 4.99319 2.96912 4.46575 3.10587 4.11412C3.26612 3.68038 3.52007 3.28586 3.85614 2.96536C4.18029 2.63327 4.571 2.37931 5.00473 2.21921C5.35636 2.08247 5.88778 1.9184 6.86056 1.87537C7.91545 1.82851 8.23198 1.81676 10.9003 1.81676C13.5728 1.81676 13.8892 1.82851 14.9403 1.87537C15.917 1.9184 16.4445 2.08247 16.7961 2.21921C17.2297 2.37931 17.6244 2.63327 17.9447 2.96536C18.2768 3.28967 18.5308 3.68038 18.691 4.11412C18.8278 4.46575 18.9918 4.99701 19.0349 5.96995C19.0817 7.02484 19.0935 7.34122 19.0935 10.0097C19.0935 12.6783 19.0817 12.9908 19.0349 14.0457Z" fill="#232323"/>
<path d="M10.8926 4.86426C8.0562 4.86426 5.75488 7.16543 5.75488 10.002C5.75488 12.8385 8.0562 15.1397 10.8926 15.1397C13.7292 15.1397 16.0303 12.8385 16.0303 10.002C16.0303 7.16543 13.7292 4.86426 10.8926 4.86426ZM10.8926 13.3347C9.05249 13.3347 7.55989 11.8422 7.55989 10.002C7.55989 8.16172 9.05249 6.66927 10.8926 6.66927C12.7329 6.66927 14.2253 8.16172 14.2253 10.002C14.2253 11.8422 12.7329 13.3347 10.8926 13.3347V13.3347Z" fill="#232323"/>
<path d="M17.4334 4.66134C17.4334 5.3237 16.8964 5.86077 16.2339 5.86077C15.5715 5.86077 15.0344 5.3237 15.0344 4.66134C15.0344 3.99882 15.5715 3.46191 16.2339 3.46191C16.8964 3.46191 17.4334 3.99882 17.4334 4.66134V4.66134Z" fill="#232323"/>
</g>
<defs>
<clipPath id="clip0_3758_3094">
<rect width="20" height="20" fill="white" transform="translate(0.855469)"/>
</clipPath>
</defs>
</svg>
