<svg width="12" height="18" viewBox="0 0 12 18" fill="none" xmlns="http://www.w3.org/2000/svg">
<path d="M0.999959 15.6667H11C11.4583 15.6667 11.8333 16.0417 11.8333 16.5001C11.8333 16.9584 11.4583 17.3334 11 17.3334H0.999959C0.541626 17.3334 0.166626 16.9584 0.166626 16.5001C0.166626 16.0417 0.541626 15.6667 0.999959 15.6667ZM5.99996 4.83341C5.08329 4.83341 4.33329 5.58341 4.33329 6.50008C4.33329 7.41675 5.08329 8.16675 5.99996 8.16675C6.91663 8.16675 7.66663 7.41675 7.66663 6.50008C7.66663 5.58341 6.91663 4.83341 5.99996 4.83341ZM5.99996 0.666748C8.72496 0.666748 11.8333 2.71675 11.8333 6.62508C11.8333 9.10841 10.0583 11.7251 6.50829 14.4501C6.20829 14.6834 5.79163 14.6834 5.49163 14.4501C1.94163 11.7167 0.166626 9.10841 0.166626 6.62508C0.166626 2.71675 3.27496 0.666748 5.99996 0.666748Z" fill="#232323"/>
</svg>
