<svg width="21" height="20" viewBox="0 0 21 20" fill="none" xmlns="http://www.w3.org/2000/svg">
<g clip-path="url(#clip0_3758_3110)">
<path d="M19.8343 5.31398C19.6183 4.51072 18.985 3.87752 18.1818 3.66122C16.7146 3.25977 10.8455 3.25977 10.8455 3.25977C10.8455 3.25977 4.9766 3.25977 3.50935 3.646C2.72166 3.86207 2.07289 4.51083 1.85683 5.31398C1.4707 6.78111 1.4707 9.82375 1.4707 9.82375C1.4707 9.82375 1.4707 12.8817 1.85683 14.3335C2.07312 15.1367 2.70621 15.7699 3.50947 15.9862C4.99205 16.3877 10.8457 16.3877 10.8457 16.3877C10.8457 16.3877 16.7146 16.3877 18.1818 16.0015C18.9851 15.7853 19.6183 15.1521 19.8346 14.349C20.2206 12.8817 20.2206 9.8392 20.2206 9.8392C20.2206 9.8392 20.236 6.78111 19.8343 5.31398V5.31398ZM8.97688 12.6347V7.01286L13.8573 9.82375L8.97688 12.6347Z" fill="#232323"/>
</g>
<defs>
<clipPath id="clip0_3758_3110">
<rect width="20" height="20" fill="white" transform="translate(0.855469)"/>
</clipPath>
</defs>
</svg>
